# xmcd
#
# Track frame offsets:
# 150
# 18910
# 39993
# 55832
# 77406
# 85762
# 100105
# 129807
# 148245
# 167933
# 188003
# 205154
# 242434
#
# Disc length: 3601 seconds
#
# Revision: 0
# Processed by: cddbd v1.5.1PL2 Copyright (c) Steve Scherf et al.
# Submitted via: Audion 3.0.2 (http://www.panic.com/audion/)
#
DISCID=990e0f0d
DTITLE=questions about art - happy dagger
DYEAR=1900
DGENRE=
TTITLE0=1000 dreams
TTITLE1=art
TTITLE2=how long
TTITLE3=what you did
TTITLE4=stray lullaby
TTITLE5=stones
TTITLE6=the well
TTITLE7=porchlight
TTITLE8=castles
TTITLE9=stranger
TTITLE10=chronic fatigue
TTITLE11=sonnet 154
TTITLE12=time in the slammer
EXTD=
EXTT0=
EXTT1=
EXTT2=
EXTT3=
EXTT4=
EXTT5=
EXTT6=
EXTT7=
EXTT8=
EXTT9=
EXTT10=
EXTT11=
EXTT12=
PLAYORDER=
